<svg xmlns="http://www.w3.org/2000/svg" width="1100" height="620" viewBox="0 0 1100 620">
<rect width="100%" height="100%" fill="white"/>
<text x="550" y="35" text-anchor="middle" font-size="22" font-family="Arial">Mahalanobis distance from real-data feature distribution</text>
<line x1="90" y1="440" x2="1070" y2="440" stroke="#333"/>
<line x1="90" y1="70" x2="90" y2="440" stroke="#333"/>
<line x1="85" y1="440.00" x2="1070" y2="440.00" stroke="#ddd"/>
<text x="80" y="444.00" text-anchor="end" font-size="12" font-family="Arial">0.00</text>
<line x1="85" y1="366.00" x2="1070" y2="366.00" stroke="#ddd"/>
<text x="80" y="370.00" text-anchor="end" font-size="12" font-family="Arial">5.79</text>
<line x1="85" y1="292.00" x2="1070" y2="292.00" stroke="#ddd"/>
<text x="80" y="296.00" text-anchor="end" font-size="12" font-family="Arial">11.58</text>
<line x1="85" y1="218.00" x2="1070" y2="218.00" stroke="#ddd"/>
<text x="80" y="222.00" text-anchor="end" font-size="12" font-family="Arial">17.37</text>
<line x1="85" y1="144.00" x2="1070" y2="144.00" stroke="#ddd"/>
<text x="80" y="148.00" text-anchor="end" font-size="12" font-family="Arial">23.17</text>
<line x1="85" y1="70.00" x2="1070" y2="70.00" stroke="#ddd"/>
<text x="80" y="74.00" text-anchor="end" font-size="12" font-family="Arial">28.96</text>
<rect x="90.00" y="70.00" width="87.20" height="370.00" fill="#1f77b4"/>
<text x="133.60" y="64.00" text-anchor="middle" font-size="11" font-family="Arial">28.96</text>
<text x="133.60" y="458.00" transform="rotate(45 133.60 458.00)" font-size="12" font-family="Arial">mask8_garch.csv</text>
<rect x="189.20" y="289.25" width="87.20" height="150.75" fill="#1f77b4"/>
<text x="232.80" y="283.25" text-anchor="middle" font-size="11" font-family="Arial">11.80</text>
<text x="232.80" y="458.00" transform="rotate(45 232.80 458.00)" font-size="12" font-family="Arial">mask9_garch.csv</text>
<rect x="288.40" y="317.88" width="87.20" height="122.12" fill="#1f77b4"/>
<text x="332.00" y="311.88" text-anchor="middle" font-size="11" font-family="Arial">9.56</text>
<text x="332.00" y="458.00" transform="rotate(45 332.00 458.00)" font-size="12" font-family="Arial">mask7_garch.csv</text>
<rect x="387.60" y="320.20" width="87.20" height="119.80" fill="#1f77b4"/>
<text x="431.20" y="314.20" text-anchor="middle" font-size="11" font-family="Arial">9.38</text>
<text x="431.20" y="458.00" transform="rotate(45 431.20 458.00)" font-size="12" font-family="Arial">mask6_garch.csv</text>
<rect x="486.80" y="330.23" width="87.20" height="109.77" fill="#1f77b4"/>
<text x="530.40" y="324.23" text-anchor="middle" font-size="11" font-family="Arial">8.59</text>
<text x="530.40" y="458.00" transform="rotate(45 530.40 458.00)" font-size="12" font-family="Arial">mask3_garch.csv</text>
<rect x="586.00" y="334.53" width="87.20" height="105.47" fill="#1f77b4"/>
<text x="629.60" y="328.53" text-anchor="middle" font-size="11" font-family="Arial">8.25</text>
<text x="629.60" y="458.00" transform="rotate(45 629.60 458.00)" font-size="12" font-family="Arial">mask1_garch.csv</text>
<rect x="685.20" y="345.80" width="87.20" height="94.20" fill="#1f77b4"/>
<text x="728.80" y="339.80" text-anchor="middle" font-size="11" font-family="Arial">7.37</text>
<text x="728.80" y="458.00" transform="rotate(45 728.80 458.00)" font-size="12" font-family="Arial">mask5_garch.csv</text>
<rect x="784.40" y="355.81" width="87.20" height="84.19" fill="#1f77b4"/>
<text x="828.00" y="349.81" text-anchor="middle" font-size="11" font-family="Arial">6.59</text>
<text x="828.00" y="458.00" transform="rotate(45 828.00 458.00)" font-size="12" font-family="Arial">mask4_garch.csv</text>
<rect x="883.60" y="358.04" width="87.20" height="81.96" fill="#1f77b4"/>
<text x="927.20" y="352.04" text-anchor="middle" font-size="11" font-family="Arial">6.41</text>
<text x="927.20" y="458.00" transform="rotate(45 927.20 458.00)" font-size="12" font-family="Arial">mask10_garch.csv</text>
<rect x="982.80" y="369.72" width="87.20" height="70.28" fill="#1f77b4"/>
<text x="1026.40" y="363.72" text-anchor="middle" font-size="11" font-family="Arial">5.50</text>
<text x="1026.40" y="458.00" transform="rotate(45 1026.40 458.00)" font-size="12" font-family="Arial">mask2_garch.csv</text>
<text x="22" y="255.00" transform="rotate(-90 22 255.00)" text-anchor="middle" font-size="14" font-family="Arial">Mahalanobis distance</text>
</svg>