<svg xmlns="http://www.w3.org/2000/svg" width="1160" height="640" viewBox="0 0 1160 640">
<rect width="100%" height="100%" fill="white"/>
<text x="580" y="35" text-anchor="middle" font-size="22" font-family="Arial">Mahalanobis remake2 distance from real-data feature distribution</text>
<line x1="90" y1="450" x2="1130" y2="450" stroke="#333"/>
<line x1="90" y1="70" x2="90" y2="450" stroke="#333"/>
<line x1="85" y1="450.00" x2="1130" y2="450.00" stroke="#ddd"/>
<text x="80" y="454.00" text-anchor="end" font-size="12" font-family="Arial">0.00</text>
<line x1="85" y1="374.00" x2="1130" y2="374.00" stroke="#ddd"/>
<text x="80" y="378.00" text-anchor="end" font-size="12" font-family="Arial">13.28</text>
<line x1="85" y1="298.00" x2="1130" y2="298.00" stroke="#ddd"/>
<text x="80" y="302.00" text-anchor="end" font-size="12" font-family="Arial">26.56</text>
<line x1="85" y1="222.00" x2="1130" y2="222.00" stroke="#ddd"/>
<text x="80" y="226.00" text-anchor="end" font-size="12" font-family="Arial">39.84</text>
<line x1="85" y1="146.00" x2="1130" y2="146.00" stroke="#ddd"/>
<text x="80" y="150.00" text-anchor="end" font-size="12" font-family="Arial">53.12</text>
<line x1="85" y1="70.00" x2="1130" y2="70.00" stroke="#ddd"/>
<text x="80" y="74.00" text-anchor="end" font-size="12" font-family="Arial">66.40</text>
<rect x="90.00" y="70.00" width="95.00" height="380.00" fill="#2a6fbb"/>
<text x="137.50" y="64.00" text-anchor="middle" font-size="11" font-family="Arial">66.40</text>
<text x="137.50" y="468.00" transform="rotate(45 137.50 468.00)" font-size="12" font-family="Arial">garch_generated_008.csv</text>
<rect x="195.00" y="96.52" width="95.00" height="353.48" fill="#2a6fbb"/>
<text x="242.50" y="90.52" text-anchor="middle" font-size="11" font-family="Arial">61.77</text>
<text x="242.50" y="468.00" transform="rotate(45 242.50 468.00)" font-size="12" font-family="Arial">garch_generated_004.csv</text>
<rect x="300.00" y="327.90" width="95.00" height="122.10" fill="#2a6fbb"/>
<text x="347.50" y="321.90" text-anchor="middle" font-size="11" font-family="Arial">21.34</text>
<text x="347.50" y="468.00" transform="rotate(45 347.50 468.00)" font-size="12" font-family="Arial">garch_generated_001.csv</text>
<rect x="405.00" y="344.85" width="95.00" height="105.15" fill="#2a6fbb"/>
<text x="452.50" y="338.85" text-anchor="middle" font-size="11" font-family="Arial">18.37</text>
<text x="452.50" y="468.00" transform="rotate(45 452.50 468.00)" font-size="12" font-family="Arial">garch_generated_009.csv</text>
<rect x="510.00" y="369.85" width="95.00" height="80.15" fill="#2a6fbb"/>
<text x="557.50" y="363.85" text-anchor="middle" font-size="11" font-family="Arial">14.01</text>
<text x="557.50" y="468.00" transform="rotate(45 557.50 468.00)" font-size="12" font-family="Arial">garch_generated_005.csv</text>
<rect x="615.00" y="377.43" width="95.00" height="72.57" fill="#2a6fbb"/>
<text x="662.50" y="371.43" text-anchor="middle" font-size="11" font-family="Arial">12.68</text>
<text x="662.50" y="468.00" transform="rotate(45 662.50 468.00)" font-size="12" font-family="Arial">garch_generated_007.csv</text>
<rect x="720.00" y="377.69" width="95.00" height="72.31" fill="#2a6fbb"/>
<text x="767.50" y="371.69" text-anchor="middle" font-size="11" font-family="Arial">12.64</text>
<text x="767.50" y="468.00" transform="rotate(45 767.50 468.00)" font-size="12" font-family="Arial">garch_generated_010.csv</text>
<rect x="825.00" y="400.40" width="95.00" height="49.60" fill="#2a6fbb"/>
<text x="872.50" y="394.40" text-anchor="middle" font-size="11" font-family="Arial">8.67</text>
<text x="872.50" y="468.00" transform="rotate(45 872.50 468.00)" font-size="12" font-family="Arial">garch_generated_006.csv</text>
<rect x="930.00" y="402.38" width="95.00" height="47.62" fill="#2a6fbb"/>
<text x="977.50" y="396.38" text-anchor="middle" font-size="11" font-family="Arial">8.32</text>
<text x="977.50" y="468.00" transform="rotate(45 977.50 468.00)" font-size="12" font-family="Arial">garch_generated_003.csv</text>
<rect x="1035.00" y="415.07" width="95.00" height="34.93" fill="#2a6fbb"/>
<text x="1082.50" y="409.07" text-anchor="middle" font-size="11" font-family="Arial">6.10</text>
<text x="1082.50" y="468.00" transform="rotate(45 1082.50 468.00)" font-size="12" font-family="Arial">garch_generated_002.csv</text>
<text x="22" y="260.00" transform="rotate(-90 22 260.00)" text-anchor="middle" font-size="14" font-family="Arial">Mahalanobis distance</text>
</svg>